# xmcd
#
# Track frame offsets: 
#        150
#        14255
#        27775
#        42457
#        59881
#        71078
#        84353
#        97856
#        108419
#        126845
#        143335
#        165254
#        177770
#        195138
#        208920
#        220715
#        240496
#
# Disc length: 3456 seconds
#
# Revision: 0
# Processed by: cddbd v1.5.2PL0 Copyright (c) Steve Scherf et al.
# Submitted via: ExactAudioCopy v0.99pb5
#
DISCID=dc0d7e11
DTITLE=Crystal Gayle - Inspiration
DYEAR=2006
DGENRE=Country
TTITLE0=The Christmas Song
TTITLE1=Amazing Grace
TTITLE2=White Christmas
TTITLE3=Have Yourself a Merry Little Christmas
TTITLE4=I Believe
TTITLE5=Rudolph the Red Nosed Reindeer
TTITLE6=Silent Night
TTITLE7=Winter Wonderland
TTITLE8=Old Rugged Cross
TTITLE9=Little Drummer Boy
TTITLE10=Swing Low Sweet Chariot
TTITLE11=Jingle Bells
TTITLE12=One Day at a Time
TTITLE13=He Is Beautiful to Me
TTITLE14=Let There Be Peace on Earth
TTITLE15=I'll Be Home for Christmas
TTITLE16=Silver Bells
EXTD=
EXTT0=
EXTT1=
EXTT2=
EXTT3=
EXTT4=
EXTT5=
EXTT6=
EXTT7=
EXTT8=
EXTT9=
EXTT10=
EXTT11=
EXTT12=
EXTT13=
EXTT14=
EXTT15=
EXTT16=
PLAYORDER=
